name C:\Users\r0593348\3dpredictsim\Results\MidTarsalJoint\Fal_s1_bCst_PF_Natali2010_ls150_MT_nl_k300_10_MTP_T5_ig24.mot
datacolumns 128
datarows 4
range 1.73712577 1.77186828
endheader
time	pelvis_tilt	pelvis_list	pelvis_rotation	pelvis_tx	pelvis_ty	pelvis_tz	hip_flexion_l	hip_adduction_l	hip_rotation_l	hip_flexion_r	hip_adduction_r	hip_rotation_r	knee_angle_l	knee_angle_r	ankle_angle_l	ankle_angle_r	subtalar_angle_l	subtalar_angle_r	tmt_angle_l	tmt_angle_r	mtp_angle_l	mtp_angle_r	lumbar_extension	lumbar_bending	lumbar_rotation	arm_flex_l	arm_add_l	arm_rot_l	arm_flex_r	arm_add_r	arm_rot_r	elbow_flex_l	elbow_flex_r	pro_sup_l	pro_sup_r	glut_med1_l/activation	glut_med2_l/activation	glut_med3_l/activation	glut_min1_l/activation	glut_min2_l/activation	glut_min3_l/activation	semimem_l/activation	semiten_l/activation	bifemlh_l/activation	bifemsh_l/activation	sar_l/activation	add_long_l/activation	add_brev_l/activation	add_mag1_l/activation	add_mag2_l/activation	add_mag3_l/activation	tfl_l/activation	pect_l/activation	grac_l/activation	glut_max1_l/activation	glut_max2_l/activation	glut_max3_l/activation	iliacus_l/activation	psoas_l/activation	quad_fem_l/activation	gem_l/activation	peri_l/activation	rect_fem_l/activation	vas_med_l/activation	vas_int_l/activation	vas_lat_l/activation	med_gas_l/activation	lat_gas_l/activation	soleus_l/activation	tib_post_l/activation	flex_dig_l/activation	flex_hal_l/activation	tib_ant_l/activation	per_brev_l/activation	per_long_l/activation	per_tert_l/activation	ext_dig_l/activation	ext_hal_l/activation	ercspn_l/activation	intobl_l/activation	extobl_l/activation	glut_med1_r/activation	glut_med2_r/activation	glut_med3_r/activation	glut_min1_r/activation	glut_min2_r/activation	glut_min3_r/activation	semimem_r/activation	semiten_r/activation	bifemlh_r/activation	bifemsh_r/activation	sar_r/activation	add_long_r/activation	add_brev_r/activation	add_mag1_r/activation	add_mag2_r/activation	add_mag3_r/activation	tfl_r/activation	pect_r/activation	grac_r/activation	glut_max1_r/activation	glut_max2_r/activation	glut_max3_r/activation	iliacus_r/activation	psoas_r/activation	quad_fem_r/activation	gem_r/activation	peri_r/activation	rect_fem_r/activation	vas_med_r/activation	vas_int_r/activation	vas_lat_r/activation	med_gas_r/activation	lat_gas_r/activation	soleus_r/activation	tib_post_r/activation	flex_dig_r/activation	flex_hal_r/activation	tib_ant_r/activation	per_brev_r/activation	per_long_r/activation	per_tert_r/activation	ext_dig_r/activation	ext_hal_r/activation	ercspn_r/activation	intobl_r/activation	extobl_r/activation	
          1.73712577	         -2.93017636	          2.13572459	         -5.74492540	          2.17140721	          0.91949106	          0.00238508	         28.93839239	          3.32290864	         -3.30460102	        -16.39827470	         -1.06776864	          6.41325156	         -9.90060593	         -9.74773191	          5.74218993	         -3.02142514	         -3.67893897	          9.59108480	         -1.12827127	          3.92848026	          3.19857271	         14.79424691	         -1.77993385	         -0.31924208	          2.17906532	         -6.44006952	        -13.45495697	          4.44656098	          3.72983132	        -13.45377594	         14.17593288	         18.44601856	         38.30564883	         86.51662706	         86.51662706	          0.05965068	          0.05965067	          0.05000025	          0.05965078	          0.05965075	          0.05928936	          0.18740088	          0.09208760	          0.17665071	          0.05965219	          0.05000047	          0.17172403	          0.29293961	          0.21027196	          0.23659415	          0.11686607	          0.05000032	          0.05065578	          0.14783519	          0.05000075	          0.05000083	          0.16494238	          0.05965076	          0.05133038	          0.30785110	          0.30687467	          0.14203120	          0.05000062	          0.10565861	          0.10458191	          0.09343935	          0.07279445	          0.07551953	          0.06285558	          0.05000016	          0.05965428	          0.05000136	          0.50647882	          0.23744572	          0.16199072	          0.21303851	          0.47164517	          0.24540405	          0.05418339	          0.11693535	          0.09882224	          0.23345637	          0.10128659	          0.06814043	          0.27087313	          0.18480167	          0.10357846	          0.05000339	          0.05000054	          0.05000031	          0.05107795	          0.11065348	          0.11194458	          0.09505632	          0.05000231	          0.05000340	          0.05000085	          0.31740384	          0.11812757	          0.05035573	          0.05000178	          0.05000106	          0.05000091	          0.39352392	          0.63915467	          0.05000022	          0.05000075	          0.05000381	          0.30971274	          0.05000031	          0.05000032	          0.05000030	          0.25787275	          0.35730184	          0.32825999	          0.26414033	          0.25167461	          0.33431074	          0.05000005	          0.05965079	          0.13515369	          0.05000036	          0.05000009	          0.05000034	          0.05000004	          0.05000015	          0.06956912	
          1.74870660	         -2.92802874	          2.21617898	         -6.00308795	          2.18908879	          0.91863873	          0.00219846	         28.28382207	          3.72459785	         -3.06763887	        -16.18146135	         -1.37207773	          6.23504758	        -10.39569237	        -11.80318434	          5.16268217	         -3.74498910	         -4.05438698	         10.60372788	         -1.25593799	          2.94047541	          3.08623665	         16.73062133	         -1.55716326	         -0.51874376	          2.25161546	         -7.36146518	        -13.44973650	          4.27274379	          3.38602396	        -13.46182275	         14.50843737	         18.03847596	         39.51858688	         86.51662706	         86.51662706	          0.05000001	          0.05000006	          0.12179502	          0.05000009	          0.05000009	          0.05000009	          0.15708203	          0.07718918	          0.14807100	          0.05000163	          0.05950926	          0.14394152	          0.34662748	          0.35749331	          0.24584807	          0.12804846	          0.05000046	          0.08315727	          0.17324936	          0.06441663	          0.11220137	          0.15542874	          0.05000022	          0.05000075	          0.56985300	          0.25722645	          0.11905253	          0.05965070	          0.08856535	          0.08766318	          0.07832290	          0.07116260	          0.07116398	          0.06364024	          0.05965028	          0.05000340	          0.05877237	          0.49403752	          0.26622003	          0.20828186	          0.17857195	          0.43681059	          0.20570102	          0.05000000	          0.09801676	          0.08283411	          0.19568627	          0.08489983	          0.05965091	          0.22704957	          0.15490330	          0.08682092	          0.05000516	          0.05000142	          0.05000571	          0.05000012	          0.09275139	          0.20160055	          0.07968052	          0.12222681	          0.05965373	          0.05965318	          0.26605230	          0.09901729	          0.05000354	          0.05946263	          0.05965070	          0.05965220	          0.32985699	          0.58442674	          0.05965212	          0.05965368	          0.05000132	          0.27148796	          0.11977487	          0.12557690	          0.08051877	          0.21615234	          0.29949513	          0.27515186	          0.22140603	          0.21095738	          0.28022404	          0.05000003	          0.05000022	          0.15487801	          0.05000009	          0.05000005	          0.05000015	          0.06619995	          0.07116421	          0.07116411	
          1.76028744	         -2.92112777	          2.30397075	         -6.22618835	          2.20707343	          0.91775790	          0.00203847	         27.49683935	          4.00075478	         -2.80329283	        -15.89987735	         -1.67578829	          6.04699945	        -10.96128235	        -13.94832756	          4.67744151	         -4.63172343	         -4.44086427	         11.55101770	         -1.48490747	          1.82073213	          3.10420469	         18.71329984	         -1.31291194	         -0.73342692	          2.31173733	         -8.29913431	        -13.45627678	          4.17115316	          2.96745051	        -13.46497338	         14.77202091	         17.65719121	         40.69787620	         86.51662706	         86.51662706	          0.25087810	          0.27070767	          0.30083643	          0.46389654	          0.28925325	          0.20150870	          0.13416717	          0.07572254	          0.12483457	          0.06538755	          0.05000083	          0.12065373	          0.29054778	          0.29965575	          0.20607355	          0.14149135	          0.05000054	          0.06970413	          0.14522027	          0.14870752	          0.13527929	          0.13028362	          0.05000562	          0.05000052	          0.47765833	          0.21561074	          0.23277155	          0.05000014	          0.07423683	          0.07348063	          0.06565145	          0.05964949	          0.05965067	          0.05370219	          0.05000017	          0.05000056	          0.05000072	          0.56070547	          0.34405434	          0.17458495	          0.36250609	          0.50728542	          0.17865210	          0.06478087	          0.11808864	          0.06943266	          0.30238400	          0.07116426	          0.05000041	          0.26545657	          0.12984222	          0.07277457	          0.05000427	          0.05000032	          0.05000021	          0.05000117	          0.07774600	          0.16898435	          0.06678981	          0.10245226	          0.05000311	          0.05000227	          0.30803345	          0.08424829	          0.05000673	          0.05000201	          0.05000159	          0.05000167	          0.27649057	          0.54506531	          0.05000130	          0.05000296	          0.05000376	          0.24992752	          0.10039695	          0.10526030	          0.06749196	          0.18118174	          0.25104078	          0.23063591	          0.18558550	          0.17682742	          0.23488761	          0.07484659	          0.13932011	          0.16071489	          0.05000466	          0.09215667	          0.05000148	          0.06301329	          0.05965078	          0.05965071	
          1.77186828	         -2.91170087	          2.38233160	         -6.41040481	          2.22512102	          0.91687357	          0.00184795	         26.67080210	          4.23967295	         -2.54494990	        -15.51880335	         -1.96127085	          5.87476437	        -11.46247490	        -16.22426304	          4.14391778	         -5.62186947	         -4.83030745	         12.44028647	         -1.40635619	          0.59410129	          3.14783949	         20.53385688	         -1.07311628	         -0.94329993	          2.36157938	         -9.20066915	        -13.46437594	          4.14411055	          2.51845995	        -13.47659693	         14.99901084	         17.27361214	         41.81792390	         86.51662706	         86.51662706	          0.36422675	          0.36985444	          0.40202188	          0.38884432	          0.24245628	          0.25473292	          0.11282517	          0.09479598	          0.10786062	          0.05480912	          0.05000118	          0.10113358	          0.24354104	          0.25117575	          0.17274165	          0.17337647	          0.05000041	          0.05842757	          0.12172606	          0.25149691	          0.20036760	          0.17801035	          0.05000009	          0.05000011	          0.40037959	          0.18072788	          0.19511281	          0.05000010	          0.11868190	          0.12412221	          0.09999817	          0.05000004	          0.05000011	          0.05000001	          0.05000003	          0.05000014	          0.05000016	          0.62868355	          0.30330511	          0.16203345	          0.60173442	          0.55694728	          0.31626333	          0.07946224	          0.09898346	          0.05819940	          0.25346238	          0.05965091	          0.05000102	          0.22250946	          0.10883557	          0.06100069	          0.05000219	          0.05000028	          0.05000039	          0.05000013	          0.06516794	          0.20019041	          0.13325098	          0.11420679	          0.05967425	          0.14282834	          0.25819813	          0.07062140	          0.05000141	          0.05001145	          0.05000781	          0.05001185	          0.23175807	          0.47562185	          0.05228421	          0.05001210	          0.05000045	          0.20949260	          0.10743540	          0.10965290	          0.10128738	          0.15186892	          0.21042570	          0.19332205	          0.15556024	          0.14821919	          0.19688597	          0.17846851	          0.11678026	          0.13471346	          0.32990291	          0.19582974	          0.09451392	          0.08008835	          0.05000010	          0.05000008	
